<?xml version="1.0" encoding="UTF-8" standalone="no"?>
<!-- Created with Inkscape (http://www.inkscape.org/) -->

<svg
   xmlns:dc="http://purl.org/dc/elements/1.1/"
   xmlns:cc="http://creativecommons.org/ns#"
   xmlns:rdf="http://www.w3.org/1999/02/22-rdf-syntax-ns#"
   xmlns:svg="http://www.w3.org/2000/svg"
   xmlns="http://www.w3.org/2000/svg"
   xmlns:sodipodi="http://sodipodi.sourceforge.net/DTD/sodipodi-0.dtd"
   xmlns:inkscape="http://www.inkscape.org/namespaces/inkscape"
   width="88.554886mm"
   height="51.749573mm"
   viewBox="0 0 313.77716 183.36462"
   id="svg3682"
   version="1.1"
   inkscape:version="0.91 r13725"
   sodipodi:docname="wf-before-after.ink.svg">
  <defs
     id="defs3684" />
  <sodipodi:namedview
     id="base"
     pagecolor="#ffffff"
     bordercolor="#666666"
     borderopacity="1.0"
     inkscape:pageopacity="0.0"
     inkscape:pageshadow="2"
     inkscape:zoom="1.4"
     inkscape:cx="61.21428"
     inkscape:cy="95.797886"
     inkscape:document-units="px"
     inkscape:current-layer="layer4"
     showgrid="false"
     fit-margin-top="0"
     fit-margin-left="0"
     fit-margin-right="0"
     fit-margin-bottom="0"
     inkscape:window-width="1366"
     inkscape:window-height="704"
     inkscape:window-x="0"
     inkscape:window-y="27"
     inkscape:window-maximized="1" />
  <metadata
     id="metadata3687">
    <rdf:RDF>
      <cc:Work
         rdf:about="">
        <dc:format>image/svg+xml</dc:format>
        <dc:type
           rdf:resource="http://purl.org/dc/dcmitype/StillImage" />
        <dc:title></dc:title>
      </cc:Work>
    </rdf:RDF>
  </metadata>
  <g
     inkscape:label="Layer 1"
     inkscape:groupmode="layer"
     id="layer1"
     transform="translate(-40.624306,-366.39417)"
     style="display:inline">
    <g
       transform="matrix(1.25,0,0,1.25,213.35134,387.01703)"
       id="g3600">
      <path
         inkscape:connector-curvature="0"
         id="path3602"
         style="fill:none;stroke:#000000;stroke-width:0.75;stroke-linecap:butt;stroke-linejoin:miter;stroke-miterlimit:4;stroke-dasharray:none;stroke-opacity:1"
         d="M 21.43,113.57 21.43,15" />
    </g>
    <g
       transform="matrix(1.25,0,0,1.25,213.35134,387.01703)"
       id="g3604">
      <path
         inkscape:connector-curvature="0"
         id="path3606"
         style="fill:none;stroke:#000000;stroke-width:0.75;stroke-linecap:butt;stroke-linejoin:miter;stroke-miterlimit:4;stroke-dasharray:none;stroke-opacity:1"
         d="m 21.43,15 21.425,0" />
    </g>
    <g
       transform="matrix(1.25,0,0,1.25,213.35134,387.01703)"
       id="g3608">
      <path
         inkscape:connector-curvature="0"
         id="path3610"
         style="fill:none;stroke:#000000;stroke-width:0.75;stroke-linecap:butt;stroke-linejoin:miter;stroke-miterlimit:4;stroke-dasharray:none;stroke-opacity:1"
         d="m 64.285,54.43 0,-39.43" />
    </g>
    <g
       transform="matrix(1.25,0,0,1.25,213.35134,387.01703)"
       id="g3612">
      <path
         inkscape:connector-curvature="0"
         id="path3614"
         style="fill:none;stroke:#000000;stroke-width:0.75;stroke-linecap:butt;stroke-linejoin:miter;stroke-miterlimit:4;stroke-dasharray:none;stroke-opacity:1"
         d="m 64.285,15 -21.43,0" />
    </g>
    <g
       transform="matrix(1.25,0,0,1.25,213.35134,387.01703)"
       id="g3616">
      <path
         inkscape:connector-curvature="0"
         id="path3618"
         style="fill:none;stroke:#000000;stroke-width:0.75;stroke-linecap:butt;stroke-linejoin:miter;stroke-miterlimit:4;stroke-dasharray:none;stroke-opacity:1"
         d="m 42.855,113.57 0,-59.14" />
    </g>
    <g
       transform="matrix(1.25,0,0,1.25,213.35134,387.01703)"
       id="g3620">
      <path
         inkscape:connector-curvature="0"
         id="path3622"
         style="fill:none;stroke:#000000;stroke-width:0.75;stroke-linecap:butt;stroke-linejoin:miter;stroke-miterlimit:4;stroke-dasharray:none;stroke-opacity:1"
         d="m 42.855,54.43 21.43,0" />
    </g>
    <g
       transform="matrix(1.25,0,0,1.25,213.35134,387.01703)"
       id="g3624">
      <path
         inkscape:connector-curvature="0"
         id="path3626"
         style="fill:none;stroke:#000000;stroke-width:0.75;stroke-linecap:butt;stroke-linejoin:miter;stroke-miterlimit:4;stroke-dasharray:none;stroke-opacity:1"
         d="m 85.715,93.855 0,-39.425" />
    </g>
    <g
       transform="matrix(1.25,0,0,1.25,213.35134,387.01703)"
       id="g3628">
      <path
         inkscape:connector-curvature="0"
         id="path3630"
         style="fill:none;stroke:#000000;stroke-width:0.75;stroke-linecap:butt;stroke-linejoin:miter;stroke-miterlimit:4;stroke-dasharray:none;stroke-opacity:1"
         d="m 85.715,54.43 -21.43,0" />
    </g>
    <g
       transform="matrix(1.25,0,0,1.25,213.35134,387.01703)"
       id="g3632">
      <path
         inkscape:connector-curvature="0"
         id="path3634"
         style="fill:none;stroke:#000000;stroke-width:0.75;stroke-linecap:butt;stroke-linejoin:miter;stroke-miterlimit:4;stroke-dasharray:none;stroke-opacity:1"
         d="m 64.285,113.57 0,-19.715" />
    </g>
    <g
       transform="matrix(1.25,0,0,1.25,213.35134,387.01703)"
       id="g3636">
      <path
         inkscape:connector-curvature="0"
         id="path3638"
         style="fill:none;stroke:#000000;stroke-width:0.75;stroke-linecap:butt;stroke-linejoin:miter;stroke-miterlimit:4;stroke-dasharray:none;stroke-opacity:1"
         d="m 64.285,93.855 21.43,0" />
    </g>
    <g
       transform="matrix(1.25,0,0,1.25,213.35134,387.01703)"
       id="g3640">
      <path
         inkscape:connector-curvature="0"
         id="path3642"
         style="fill:none;stroke:#000000;stroke-width:0.75;stroke-linecap:butt;stroke-linejoin:miter;stroke-miterlimit:4;stroke-dasharray:none;stroke-opacity:1"
         d="m 85.715,113.57 0,-19.715" />
    </g>
    <g
       transform="matrix(1.25,0,0,1.25,213.35134,387.01703)"
       id="g3644">
      <path
         inkscape:connector-curvature="0"
         id="path3646"
         style="fill:none;stroke:#000000;stroke-width:0.75;stroke-linecap:butt;stroke-linejoin:miter;stroke-miterlimit:4;stroke-dasharray:none;stroke-opacity:1"
         d="m 107.145,113.57 0,-19.715" />
    </g>
    <g
       transform="matrix(1.25,0,0,1.25,213.35134,387.01703)"
       id="g3648">
      <path
         inkscape:connector-curvature="0"
         id="path3650"
         style="fill:none;stroke:#000000;stroke-width:0.75;stroke-linecap:butt;stroke-linejoin:miter;stroke-miterlimit:4;stroke-dasharray:none;stroke-opacity:1"
         d="m 107.145,93.855 -21.43,0" />
    </g>
    <path
       inkscape:connector-curvature="0"
       id="path3666"
       style="fill:#000000;fill-opacity:1;fill-rule:nonzero;stroke:none"
       d="m 269.73259,405.76757 c 0,1.5525 -1.25375,2.8125 -2.8125,2.8125 -1.5525,0 -2.8125,-1.26 -2.8125,-2.8125 0,-1.55375 1.26,-2.8125 2.8125,-2.8125 1.55875,0 2.8125,1.25875 2.8125,2.8125 z" />
    <path
       inkscape:connector-curvature="0"
       id="path3668"
       style="fill:#000000;fill-opacity:1;fill-rule:nonzero;stroke:none"
       d="m 242.95134,528.98007 c 0,1.5525 -1.26,2.8125 -2.8125,2.8125 -1.5525,0 -2.8125,-1.26 -2.8125,-2.8125 0,-1.5525 1.26,-2.8125 2.8125,-2.8125 1.5525,0 2.8125,1.26 2.8125,2.8125 z" />
    <path
       inkscape:connector-curvature="0"
       id="path3670"
       style="fill:#000000;fill-opacity:1;fill-rule:nonzero;stroke:none"
       d="m 296.52009,455.05382 c 0,1.5525 -1.26,2.8125 -2.8125,2.8125 -1.5525,0 -2.8125,-1.26 -2.8125,-2.8125 0,-1.5525 1.26,-2.8125 2.8125,-2.8125 1.5525,0 2.8125,1.26 2.8125,2.8125 z" />
    <path
       inkscape:connector-curvature="0"
       id="path3672"
       style="fill:#000000;fill-opacity:1;fill-rule:nonzero;stroke:none"
       d="m 269.73259,528.98007 c 0,1.5525 -1.25375,2.8125 -2.8125,2.8125 -1.5525,0 -2.8125,-1.26 -2.8125,-2.8125 0,-1.5525 1.26,-2.8125 2.8125,-2.8125 1.55875,0 2.8125,1.26 2.8125,2.8125 z" />
    <path
       inkscape:connector-curvature="0"
       id="path3674"
       style="fill:#000000;fill-opacity:1;fill-rule:nonzero;stroke:none"
       d="m 323.30759,504.33632 c 0,1.5575 -1.26,2.8125 -2.8125,2.8125 -1.5525,0 -2.8125,-1.255 -2.8125,-2.8125 0,-1.5525 1.26,-2.8125 2.8125,-2.8125 1.5525,0 2.8125,1.26 2.8125,2.8125 z" />
    <path
       inkscape:connector-curvature="0"
       id="path3676"
       style="fill:#000000;fill-opacity:1;fill-rule:nonzero;stroke:none"
       d="m 296.52009,528.98007 c 0,1.5525 -1.26,2.8125 -2.8125,2.8125 -1.5525,0 -2.8125,-1.26 -2.8125,-2.8125 0,-1.5525 1.26,-2.8125 2.8125,-2.8125 1.5525,0 2.8125,1.26 2.8125,2.8125 z" />
    <path
       inkscape:connector-curvature="0"
       id="path3678"
       style="fill:#000000;fill-opacity:1;fill-rule:nonzero;stroke:none"
       d="m 323.30759,528.98007 c 0,1.5525 -1.26,2.8125 -2.8125,2.8125 -1.5525,0 -2.8125,-1.26 -2.8125,-2.8125 0,-1.5525 1.26,-2.8125 2.8125,-2.8125 1.5525,0 2.8125,1.26 2.8125,2.8125 z" />
    <path
       inkscape:connector-curvature="0"
       id="path3680"
       style="fill:#000000;fill-opacity:1;fill-rule:nonzero;stroke:none"
       d="m 350.09509,528.98007 c 0,1.5525 -1.26,2.8125 -2.8125,2.8125 -1.55875,0 -2.8125,-1.26 -2.8125,-2.8125 0,-1.5525 1.25375,-2.8125 2.8125,-2.8125 1.5525,0 2.8125,1.26 2.8125,2.8125 z" />
    <g
       transform="matrix(1.25,0,0,1.25,37.95743,362.07289)"
       id="g14">
      <path
         inkscape:connector-curvature="0"
         id="path16"
         style="fill:none;stroke:#000000;stroke-width:0.75;stroke-linecap:butt;stroke-linejoin:miter;stroke-miterlimit:4;stroke-dasharray:none;stroke-opacity:1"
         d="m 56.25,35 0,-20" />
    </g>
    <g
       transform="matrix(1.25,0,0,1.25,37.95743,362.07289)"
       id="g18">
      <path
         inkscape:connector-curvature="0"
         id="path20"
         style="fill:none;stroke:#000000;stroke-width:0.75;stroke-linecap:butt;stroke-linejoin:miter;stroke-miterlimit:4;stroke-dasharray:none;stroke-opacity:1"
         d="M 30,55 30,35" />
    </g>
    <g
       transform="matrix(1.25,0,0,1.25,37.95743,362.07289)"
       id="g22">
      <path
         inkscape:connector-curvature="0"
         id="path24"
         style="fill:none;stroke:#000000;stroke-width:0.75;stroke-linecap:butt;stroke-linejoin:miter;stroke-miterlimit:4;stroke-dasharray:none;stroke-opacity:1"
         d="m 30,35 26.25,0" />
    </g>
    <g
       transform="matrix(1.25,0,0,1.25,37.95743,362.07289)"
       id="g26">
      <path
         inkscape:connector-curvature="0"
         id="path28"
         style="fill:none;stroke:#000000;stroke-width:0.75;stroke-linecap:butt;stroke-linejoin:miter;stroke-miterlimit:4;stroke-dasharray:none;stroke-opacity:1"
         d="M 15,75 15,55" />
    </g>
    <g
       transform="matrix(1.25,0,0,1.25,37.95743,362.07289)"
       id="g30">
      <path
         inkscape:connector-curvature="0"
         id="path32"
         style="fill:none;stroke:#000000;stroke-width:0.75;stroke-linecap:butt;stroke-linejoin:miter;stroke-miterlimit:4;stroke-dasharray:none;stroke-opacity:1"
         d="m 15,55 15,0" />
    </g>
    <g
       transform="matrix(1.25,0,0,1.25,37.95743,362.07289)"
       id="g34">
      <path
         inkscape:connector-curvature="0"
         id="path36"
         style="fill:none;stroke:#000000;stroke-width:0.75;stroke-linecap:butt;stroke-linejoin:miter;stroke-miterlimit:4;stroke-dasharray:none;stroke-opacity:1"
         d="M 15,95 15,75" />
    </g>
    <g
       transform="matrix(1.25,0,0,1.25,37.95743,362.07289)"
       id="g38">
      <path
         inkscape:connector-curvature="0"
         id="path40"
         style="fill:none;stroke:#000000;stroke-width:0.75;stroke-linecap:butt;stroke-linejoin:miter;stroke-miterlimit:4;stroke-dasharray:none;stroke-opacity:1"
         d="M 15,115 15,95" />
    </g>
    <g
       transform="matrix(1.25,0,0,1.25,37.95743,362.07289)"
       id="g42">
      <path
         inkscape:connector-curvature="0"
         id="path44"
         style="fill:none;stroke:#000000;stroke-width:0.75;stroke-linecap:butt;stroke-linejoin:miter;stroke-miterlimit:4;stroke-dasharray:none;stroke-opacity:1"
         d="m 15,135 0,-20" />
    </g>
    <g
       transform="matrix(1.25,0,0,1.25,37.95743,362.07289)"
       id="g46">
      <path
         inkscape:connector-curvature="0"
         id="path48"
         style="fill:none;stroke:#000000;stroke-width:0.75;stroke-linecap:butt;stroke-linejoin:miter;stroke-miterlimit:4;stroke-dasharray:none;stroke-opacity:1"
         d="M 30,95 30,55" />
    </g>
    <g
       transform="matrix(1.25,0,0,1.25,37.95743,362.07289)"
       id="g50">
      <path
         inkscape:connector-curvature="0"
         id="path52"
         style="fill:none;stroke:#000000;stroke-width:0.75;stroke-linecap:butt;stroke-linejoin:miter;stroke-miterlimit:4;stroke-dasharray:none;stroke-opacity:1"
         d="M 30,115 30,95" />
    </g>
    <g
       transform="matrix(1.25,0,0,1.25,37.95743,362.07289)"
       id="g54">
      <path
         inkscape:connector-curvature="0"
         id="path56"
         style="fill:none;stroke:#000000;stroke-width:0.75;stroke-linecap:butt;stroke-linejoin:miter;stroke-miterlimit:4;stroke-dasharray:none;stroke-opacity:1"
         d="M 45,95 45,55" />
    </g>
    <g
       transform="matrix(1.25,0,0,1.25,37.95743,362.07289)"
       id="g58">
      <path
         inkscape:connector-curvature="0"
         id="path60"
         style="fill:none;stroke:#000000;stroke-width:0.75;stroke-linecap:butt;stroke-linejoin:miter;stroke-miterlimit:4;stroke-dasharray:none;stroke-opacity:1"
         d="M 45,55 30,55" />
    </g>
    <g
       transform="matrix(1.25,0,0,1.25,37.95743,362.07289)"
       id="g62">
      <path
         inkscape:connector-curvature="0"
         id="path64"
         style="fill:none;stroke:#000000;stroke-width:0.75;stroke-linecap:butt;stroke-linejoin:miter;stroke-miterlimit:4;stroke-dasharray:none;stroke-opacity:1"
         d="M 45,115 45,95" />
    </g>
    <g
       transform="matrix(1.25,0,0,1.25,37.95743,362.07289)"
       id="g66">
      <path
         inkscape:connector-curvature="0"
         id="path68"
         style="fill:none;stroke:#000000;stroke-width:0.75;stroke-linecap:butt;stroke-linejoin:miter;stroke-miterlimit:4;stroke-dasharray:none;stroke-opacity:1"
         d="m 82.5,55 0,-20" />
    </g>
    <g
       transform="matrix(1.25,0,0,1.25,37.95743,362.07289)"
       id="g70">
      <path
         inkscape:connector-curvature="0"
         id="path72"
         style="fill:none;stroke:#000000;stroke-width:0.75;stroke-linecap:butt;stroke-linejoin:miter;stroke-miterlimit:4;stroke-dasharray:none;stroke-opacity:1"
         d="M 82.5,35 56.25,35" />
    </g>
    <g
       transform="matrix(1.25,0,0,1.25,37.95743,362.07289)"
       id="g74">
      <path
         inkscape:connector-curvature="0"
         id="path76"
         style="fill:none;stroke:#000000;stroke-width:0.75;stroke-linecap:butt;stroke-linejoin:miter;stroke-miterlimit:4;stroke-dasharray:none;stroke-opacity:1"
         d="M 60,75 60,55" />
    </g>
    <g
       transform="matrix(1.25,0,0,1.25,37.95743,362.07289)"
       id="g78">
      <path
         inkscape:connector-curvature="0"
         id="path80"
         style="fill:none;stroke:#000000;stroke-width:0.75;stroke-linecap:butt;stroke-linejoin:miter;stroke-miterlimit:4;stroke-dasharray:none;stroke-opacity:1"
         d="m 60,55 22.5,0" />
    </g>
    <g
       transform="matrix(1.25,0,0,1.25,37.95743,362.07289)"
       id="g82">
      <path
         inkscape:connector-curvature="0"
         id="path84"
         style="fill:none;stroke:#000000;stroke-width:0.75;stroke-linecap:butt;stroke-linejoin:miter;stroke-miterlimit:4;stroke-dasharray:none;stroke-opacity:1"
         d="m 105,75 0,-20" />
    </g>
    <g
       transform="matrix(1.25,0,0,1.25,37.95743,362.07289)"
       id="g86">
      <path
         inkscape:connector-curvature="0"
         id="path88"
         style="fill:none;stroke:#000000;stroke-width:0.75;stroke-linecap:butt;stroke-linejoin:miter;stroke-miterlimit:4;stroke-dasharray:none;stroke-opacity:1"
         d="M 105,55 82.5,55" />
    </g>
    <g
       transform="matrix(1.25,0,0,1.25,37.95743,362.07289)"
       id="g90">
      <path
         inkscape:connector-curvature="0"
         id="path92"
         style="fill:none;stroke:#000000;stroke-width:0.75;stroke-linecap:butt;stroke-linejoin:miter;stroke-miterlimit:4;stroke-dasharray:none;stroke-opacity:1"
         d="M 90,95 90,75" />
    </g>
    <g
       transform="matrix(1.25,0,0,1.25,37.95743,362.07289)"
       id="g94">
      <path
         inkscape:connector-curvature="0"
         id="path96"
         style="fill:none;stroke:#000000;stroke-width:0.75;stroke-linecap:butt;stroke-linejoin:miter;stroke-miterlimit:4;stroke-dasharray:none;stroke-opacity:1"
         d="m 90,75 15,0" />
    </g>
    <g
       transform="matrix(1.25,0,0,1.25,37.95743,362.07289)"
       id="g98">
      <path
         inkscape:connector-curvature="0"
         id="path100"
         style="fill:none;stroke:#000000;stroke-width:0.75;stroke-linecap:butt;stroke-linejoin:miter;stroke-miterlimit:4;stroke-dasharray:none;stroke-opacity:1"
         d="M 90,115 90,95" />
    </g>
    <g
       transform="matrix(1.25,0,0,1.25,37.95743,362.07289)"
       id="g102">
      <path
         inkscape:connector-curvature="0"
         id="path104"
         style="fill:none;stroke:#000000;stroke-width:0.75;stroke-linecap:butt;stroke-linejoin:miter;stroke-miterlimit:4;stroke-dasharray:none;stroke-opacity:1"
         d="m 75,135 0,-20" />
    </g>
    <g
       transform="matrix(1.25,0,0,1.25,37.95743,362.07289)"
       id="g106">
      <path
         inkscape:connector-curvature="0"
         id="path108"
         style="fill:none;stroke:#000000;stroke-width:0.75;stroke-linecap:butt;stroke-linejoin:miter;stroke-miterlimit:4;stroke-dasharray:none;stroke-opacity:1"
         d="m 75,115 15,0" />
    </g>
    <g
       transform="matrix(1.25,0,0,1.25,37.95743,362.07289)"
       id="g110">
      <path
         inkscape:connector-curvature="0"
         id="path112"
         style="fill:none;stroke:#000000;stroke-width:0.75;stroke-linecap:butt;stroke-linejoin:miter;stroke-miterlimit:4;stroke-dasharray:none;stroke-opacity:1"
         d="m 90,135 0,-20" />
    </g>
    <g
       transform="matrix(1.25,0,0,1.25,37.95743,362.07289)"
       id="g114">
      <path
         inkscape:connector-curvature="0"
         id="path116"
         style="fill:none;stroke:#000000;stroke-width:0.75;stroke-linecap:butt;stroke-linejoin:miter;stroke-miterlimit:4;stroke-dasharray:none;stroke-opacity:1"
         d="m 105,135 0,-20" />
    </g>
    <g
       transform="matrix(1.25,0,0,1.25,37.95743,362.07289)"
       id="g118">
      <path
         inkscape:connector-curvature="0"
         id="path120"
         style="fill:none;stroke:#000000;stroke-width:0.75;stroke-linecap:butt;stroke-linejoin:miter;stroke-miterlimit:4;stroke-dasharray:none;stroke-opacity:1"
         d="m 105,115 -15,0" />
    </g>
    <g
       transform="matrix(1.25,0,0,1.25,37.95743,362.07289)"
       id="g122">
      <path
         inkscape:connector-curvature="0"
         id="path124"
         style="fill:none;stroke:#000000;stroke-width:0.75;stroke-linecap:butt;stroke-linejoin:miter;stroke-miterlimit:4;stroke-dasharray:none;stroke-opacity:1"
         d="m 120,95 0,-20" />
    </g>
    <g
       transform="matrix(1.25,0,0,1.25,37.95743,362.07289)"
       id="g126">
      <path
         inkscape:connector-curvature="0"
         id="path128"
         style="fill:none;stroke:#000000;stroke-width:0.75;stroke-linecap:butt;stroke-linejoin:miter;stroke-miterlimit:4;stroke-dasharray:none;stroke-opacity:1"
         d="m 120,75 -15,0" />
    </g>
    <g
       transform="matrix(1.25,0,0,1.25,37.95743,362.07289)"
       id="g130">
      <path
         inkscape:connector-curvature="0"
         id="path132"
         style="fill:none;stroke:#000000;stroke-width:0.75;stroke-linecap:butt;stroke-linejoin:miter;stroke-miterlimit:4;stroke-dasharray:none;stroke-opacity:1"
         d="m 120,115 0,-20" />
    </g>
    <g
       transform="matrix(1.25,0,0,1.25,37.95743,362.07289)"
       id="g134">
      <path
         inkscape:connector-curvature="0"
         id="path136"
         style="fill:none;stroke:#000000;stroke-width:0.75;stroke-linecap:butt;stroke-linejoin:miter;stroke-miterlimit:4;stroke-dasharray:none;stroke-opacity:1"
         d="m 120,135 0,-20" />
    </g>
    <path
       inkscape:connector-curvature="0"
       id="path180"
       style="fill:#000000;fill-opacity:1;fill-rule:nonzero;stroke:none"
       d="m 111.08243,380.82289 c 0,1.5525 -1.26,2.8125 -2.8125,2.8125 -1.5525,0 -2.8125,-1.26 -2.8125,-2.8125 0,-1.5525 1.26,-2.8125 2.8125,-2.8125 1.5525,0 2.8125,1.26 2.8125,2.8125 z" />
    <path
       inkscape:connector-curvature="0"
       id="path182"
       style="fill:#000000;fill-opacity:1;fill-rule:nonzero;stroke:none"
       d="m 111.08243,405.82289 c 0,1.5525 -1.26,2.8125 -2.8125,2.8125 -1.5525,0 -2.8125,-1.26 -2.8125,-2.8125 0,-1.5525 1.26,-2.8125 2.8125,-2.8125 1.5525,0 2.8125,1.26 2.8125,2.8125 z" />
    <path
       inkscape:connector-curvature="0"
       id="path184"
       style="fill:#000000;fill-opacity:1;fill-rule:nonzero;stroke:none"
       d="m 78.26993,430.82289 c 0,1.5525 -1.26,2.8125 -2.8125,2.8125 -1.5525,0 -2.8125,-1.26 -2.8125,-2.8125 0,-1.5525 1.26,-2.8125 2.8125,-2.8125 1.5525,0 2.8125,1.26 2.8125,2.8125 z" />
    <path
       inkscape:connector-curvature="0"
       id="path186"
       style="fill:#000000;fill-opacity:1;fill-rule:nonzero;stroke:none"
       d="m 59.51993,455.82289 c 0,1.5525 -1.26,2.8125 -2.8125,2.8125 -1.5525,0 -2.8125,-1.26 -2.8125,-2.8125 0,-1.5525 1.26,-2.8125 2.8125,-2.8125 1.5525,0 2.8125,1.26 2.8125,2.8125 z" />
    <path
       inkscape:connector-curvature="0"
       id="path188"
       style="fill:#000000;fill-opacity:1;fill-rule:nonzero;stroke:none"
       d="m 59.51993,480.82289 c 0,1.5525 -1.26,2.8125 -2.8125,2.8125 -1.5525,0 -2.8125,-1.26 -2.8125,-2.8125 0,-1.5525 1.26,-2.8125 2.8125,-2.8125 1.5525,0 2.8125,1.26 2.8125,2.8125 z" />
    <path
       inkscape:connector-curvature="0"
       id="path190"
       style="fill:#000000;fill-opacity:1;fill-rule:nonzero;stroke:none"
       d="m 59.51993,505.82289 c 0,1.5525 -1.26,2.8125 -2.8125,2.8125 -1.5525,0 -2.8125,-1.26 -2.8125,-2.8125 0,-1.5525 1.26,-2.8125 2.8125,-2.8125 1.5525,0 2.8125,1.26 2.8125,2.8125 z" />
    <path
       inkscape:connector-curvature="0"
       id="path192"
       style="fill:#000000;fill-opacity:1;fill-rule:nonzero;stroke:none"
       d="m 59.51993,530.82289 c 0,1.5525 -1.26,2.8125 -2.8125,2.8125 -1.5525,0 -2.8125,-1.26 -2.8125,-2.8125 0,-1.5525 1.26,-2.8125 2.8125,-2.8125 1.5525,0 2.8125,1.26 2.8125,2.8125 z" />
    <path
       inkscape:connector-curvature="0"
       id="path194"
       style="fill:#000000;fill-opacity:1;fill-rule:nonzero;stroke:none"
       d="m 78.26993,480.82289 c 0,1.5525 -1.26,2.8125 -2.8125,2.8125 -1.5525,0 -2.8125,-1.26 -2.8125,-2.8125 0,-1.5525 1.26,-2.8125 2.8125,-2.8125 1.5525,0 2.8125,1.26 2.8125,2.8125 z" />
    <path
       inkscape:connector-curvature="0"
       id="path196"
       style="fill:#000000;fill-opacity:1;fill-rule:nonzero;stroke:none"
       d="m 78.26993,505.82289 c 0,1.5525 -1.26,2.8125 -2.8125,2.8125 -1.5525,0 -2.8125,-1.26 -2.8125,-2.8125 0,-1.5525 1.26,-2.8125 2.8125,-2.8125 1.5525,0 2.8125,1.26 2.8125,2.8125 z" />
    <path
       inkscape:connector-curvature="0"
       id="path198"
       style="fill:#000000;fill-opacity:1;fill-rule:nonzero;stroke:none"
       d="m 97.01993,480.82289 c 0,1.5525 -1.26,2.8125 -2.8125,2.8125 -1.5525,0 -2.8125,-1.26 -2.8125,-2.8125 0,-1.5525 1.26,-2.8125 2.8125,-2.8125 1.5525,0 2.8125,1.26 2.8125,2.8125 z" />
    <path
       inkscape:connector-curvature="0"
       id="path200"
       style="fill:#000000;fill-opacity:1;fill-rule:nonzero;stroke:none"
       d="m 97.01993,505.82289 c 0,1.5525 -1.26,2.8125 -2.8125,2.8125 -1.5525,0 -2.8125,-1.26 -2.8125,-2.8125 0,-1.5525 1.26,-2.8125 2.8125,-2.8125 1.5525,0 2.8125,1.26 2.8125,2.8125 z" />
    <path
       inkscape:connector-curvature="0"
       id="path202"
       style="fill:#000000;fill-opacity:1;fill-rule:nonzero;stroke:none"
       d="m 143.89493,430.82289 c 0,1.5525 -1.26,2.8125 -2.8125,2.8125 -1.5525,0 -2.8125,-1.26 -2.8125,-2.8125 0,-1.5525 1.26,-2.8125 2.8125,-2.8125 1.5525,0 2.8125,1.26 2.8125,2.8125 z" />
    <path
       inkscape:connector-curvature="0"
       id="path204"
       style="fill:#000000;fill-opacity:1;fill-rule:nonzero;stroke:none"
       d="m 115.76993,455.82289 c 0,1.5525 -1.26,2.8125 -2.8125,2.8125 -1.5525,0 -2.8125,-1.26 -2.8125,-2.8125 0,-1.5525 1.26,-2.8125 2.8125,-2.8125 1.5525,0 2.8125,1.26 2.8125,2.8125 z" />
    <path
       inkscape:connector-curvature="0"
       id="path206"
       style="fill:#000000;fill-opacity:1;fill-rule:nonzero;stroke:none"
       d="m 172.01993,455.82289 c 0,1.5525 -1.26,2.8125 -2.8125,2.8125 -1.5525,0 -2.8125,-1.26 -2.8125,-2.8125 0,-1.5525 1.26,-2.8125 2.8125,-2.8125 1.5525,0 2.8125,1.26 2.8125,2.8125 z" />
    <path
       inkscape:connector-curvature="0"
       id="path208"
       style="fill:#000000;fill-opacity:1;fill-rule:nonzero;stroke:none"
       d="m 153.26993,480.82289 c 0,1.5525 -1.26,2.8125 -2.8125,2.8125 -1.5525,0 -2.8125,-1.26 -2.8125,-2.8125 0,-1.5525 1.26,-2.8125 2.8125,-2.8125 1.5525,0 2.8125,1.26 2.8125,2.8125 z" />
    <path
       inkscape:connector-curvature="0"
       id="path210"
       style="fill:#000000;fill-opacity:1;fill-rule:nonzero;stroke:none"
       d="m 153.26993,505.82289 c 0,1.5525 -1.26,2.8125 -2.8125,2.8125 -1.5525,0 -2.8125,-1.26 -2.8125,-2.8125 0,-1.5525 1.26,-2.8125 2.8125,-2.8125 1.5525,0 2.8125,1.26 2.8125,2.8125 z" />
    <path
       inkscape:connector-curvature="0"
       id="path212"
       style="fill:#000000;fill-opacity:1;fill-rule:nonzero;stroke:none"
       d="m 134.51993,530.82289 c 0,1.5525 -1.26,2.8125 -2.8125,2.8125 -1.5525,0 -2.8125,-1.26 -2.8125,-2.8125 0,-1.5525 1.26,-2.8125 2.8125,-2.8125 1.5525,0 2.8125,1.26 2.8125,2.8125 z" />
    <path
       inkscape:connector-curvature="0"
       id="path214"
       style="fill:#000000;fill-opacity:1;fill-rule:nonzero;stroke:none"
       d="m 153.26993,530.82289 c 0,1.5525 -1.26,2.8125 -2.8125,2.8125 -1.5525,0 -2.8125,-1.26 -2.8125,-2.8125 0,-1.5525 1.26,-2.8125 2.8125,-2.8125 1.5525,0 2.8125,1.26 2.8125,2.8125 z" />
    <path
       inkscape:connector-curvature="0"
       id="path216"
       style="fill:#000000;fill-opacity:1;fill-rule:nonzero;stroke:none"
       d="m 172.01993,530.82289 c 0,1.5525 -1.26,2.8125 -2.8125,2.8125 -1.5525,0 -2.8125,-1.26 -2.8125,-2.8125 0,-1.5525 1.26,-2.8125 2.8125,-2.8125 1.5525,0 2.8125,1.26 2.8125,2.8125 z" />
    <path
       inkscape:connector-curvature="0"
       id="path218"
       style="fill:#000000;fill-opacity:1;fill-rule:nonzero;stroke:none"
       d="m 190.76993,480.82289 c 0,1.5525 -1.26,2.8125 -2.8125,2.8125 -1.5525,0 -2.8125,-1.26 -2.8125,-2.8125 0,-1.5525 1.26,-2.8125 2.8125,-2.8125 1.5525,0 2.8125,1.26 2.8125,2.8125 z" />
    <path
       inkscape:connector-curvature="0"
       id="path220"
       style="fill:#000000;fill-opacity:1;fill-rule:nonzero;stroke:none"
       d="m 190.76993,505.82289 c 0,1.5525 -1.26,2.8125 -2.8125,2.8125 -1.5525,0 -2.8125,-1.26 -2.8125,-2.8125 0,-1.5525 1.26,-2.8125 2.8125,-2.8125 1.5525,0 2.8125,1.26 2.8125,2.8125 z" />
    <path
       inkscape:connector-curvature="0"
       id="path222"
       style="fill:#000000;fill-opacity:1;fill-rule:nonzero;stroke:none"
       d="m 190.76993,530.82289 c 0,1.5525 -1.26,2.8125 -2.8125,2.8125 -1.5525,0 -2.8125,-1.26 -2.8125,-2.8125 0,-1.5525 1.26,-2.8125 2.8125,-2.8125 1.5525,0 2.8125,1.26 2.8125,2.8125 z" />
    <text
       xml:space="preserve"
       style="font-style:normal;font-variant:normal;font-weight:normal;font-stretch:normal;font-size:15px;line-height:125%;font-family:Sans;-inkscape-font-specification:'Sans, Normal';text-align:start;letter-spacing:0px;word-spacing:0px;writing-mode:lr-tb;text-anchor:start;fill:#000000;fill-opacity:1;stroke:none;stroke-width:1px;stroke-linecap:butt;stroke-linejoin:miter;stroke-opacity:1"
       x="49.285713"
       y="382.36221"
       id="text4158"
       sodipodi:linespacing="125%"><tspan
         sodipodi:role="line"
         id="tspan4160"
         x="49.285713"
         y="382.36221">A)</tspan></text>
    <text
       sodipodi:linespacing="125%"
       id="text4162"
       y="382.36221"
       x="229.28571"
       style="font-style:normal;font-variant:normal;font-weight:normal;font-stretch:normal;font-size:15px;line-height:125%;font-family:Sans;-inkscape-font-specification:'Sans, Normal';text-align:start;letter-spacing:0px;word-spacing:0px;writing-mode:lr-tb;text-anchor:start;fill:#000000;fill-opacity:1;stroke:none;stroke-width:1px;stroke-linecap:butt;stroke-linejoin:miter;stroke-opacity:1"
       xml:space="preserve"><tspan
         y="382.36221"
         x="229.28571"
         id="tspan4164"
         sodipodi:role="line">B)</tspan></text>
  </g>
  <g
     inkscape:groupmode="layer"
     id="layer3"
     inkscape:label="labels"
     style="display:inline"
     transform="translate(4.0000043,1.4960938e-5)">
    <text
       transform="translate(-44.62431,-366.39418)"
       id="text138"
       style="font-variant:normal;font-weight:normal;font-size:13.125px;font-family:'DejaVu Sans';-inkscape-font-specification:DejaVuSans;writing-mode:lr-tb;fill:#000000;fill-opacity:1;fill-rule:nonzero;stroke:none"
       x="104.09146"
       y="376.13538">
      <tspan
         id="tspan140"
         y="376.13538"
         x="104.09146">0</tspan>
      <tspan
         id="tspan142"
         y="401.13541"
         x="99.403961">5</tspan>
      <tspan
         id="tspan144"
         sodipodi:role="line"
         y="408.94788"
         x="104.09146" />
      <tspan
         id="tspan146"
         sodipodi:role="line"
         y="425.35413"
         x="104.09146" />
      <tspan
         id="tspan148"
         sodipodi:role="line"
         x="104.09146"
         y="441.76038" />
      <tspan
         id="tspan150"
         sodipodi:role="line"
         y="549.57294"
         x="104.09146" />
      <tspan
         id="tspan152"
         sodipodi:role="line"
         y="549.57294"
         x="48.350502 56.698006">27</tspan>
      <tspan
         id="tspan154"
         sodipodi:role="line"
         y="540.97913"
         x="104.09146" />
      <tspan
         id="tspan156"
         sodipodi:role="line"
         y="524.57288"
         x="67.10051 75.448013">25</tspan>
      <tspan
         id="tspan158"
         sodipodi:role="line"
         y="474.57291"
         x="104.09146" />
      <tspan
         id="tspan160"
         sodipodi:role="line"
         y="524.57288"
         x="85.850517 94.198021">26</tspan>
      <tspan
         id="tspan162"
         sodipodi:role="line"
         y="523.79163"
         x="104.09146" />
      <tspan
         id="tspan164"
         sodipodi:role="line"
         y="474.57291"
         x="104.60052 112.94803">14</tspan>
      <tspan
         id="tspan166"
         sodipodi:role="line"
         y="582.38544"
         x="104.09146" />
      <tspan
         id="tspan168"
         sodipodi:role="line"
         y="549.57294"
         x="104.09146" />
      <tspan
         id="tspan170"
         sodipodi:role="line"
         y="0"
         x="104.09146" />
      <tspan
         id="tspan172"
         sodipodi:role="line"
         y="549.57294"
         x="123.35052 131.69803 142.09302 150.44052 160.83553 169.18303">283031</tspan>
      <tspan
         id="tspan174"
         sodipodi:role="line"
         x="104.09146"
         y="0" />
      <tspan
         id="tspan176"
         sodipodi:role="line"
         y="0"
         x="104.09146" />
      <tspan
         id="tspan178"
         sodipodi:role="line"
         y="549.57294"
         x="179.60051 187.94801">29</tspan>
    </text>
    <text
       y="34.685349"
       x="218.11998"
       style="font-variant:normal;font-weight:normal;font-size:13.125px;font-family:'DejaVu Sans';-inkscape-font-specification:DejaVuSans;writing-mode:lr-tb;display:inline;fill:#000000;fill-opacity:1;fill-rule:nonzero;stroke:none"
       id="text4892">
      <tspan
         x="218.11998"
         y="34.685349"
         id="tspan4894">5</tspan>
      <tspan
         x="187.15581 195.5033"
         y="181.33714"
         sodipodi:role="line"
         id="tspan4896">27</tspan>
      <tspan
         x="218.11998"
         y="181.33714"
         sodipodi:role="line"
         id="tspan4898" />
      <tspan
         x="213.94151 222.28902"
         y="181.33714"
         sodipodi:role="line"
         id="tspan4900">29</tspan>
      <tspan
         x="218.11998"
         y="0"
         sodipodi:role="line"
         id="tspan4902" />
      <tspan
         x="240.72725 249.07472 267.50226 275.84976 294.29037 302.63788"
         y="181.33714"
         sodipodi:role="line"
         id="tspan4904">283031</tspan>
    </text>
  </g>
  <g
     inkscape:groupmode="layer"
     id="layer4"
     inkscape:label="labels 1"
     style="display:inline"
     transform="translate(4.0000043,1.4960938e-5)">
    <g
       id="g5065"
       transform="translate(-4,0)">
      <text
         transform="translate(-44.62431,-366.39418)"
         id="text4906"
         style="font-variant:normal;font-weight:normal;font-size:13.125px;font-family:'DejaVu Sans';-inkscape-font-specification:DejaVuSans;writing-mode:lr-tb;display:inline;fill:#000000;fill-opacity:1;fill-rule:nonzero;stroke:none"
         x="104.09146"
         y="376.13538">
        <tspan
           id="tspan4910"
           y="401.13541"
           x="99.403961" />
        <tspan
           id="tspan4912"
           sodipodi:role="line"
           y="426.13541"
           x="62.412998 70.760498">11</tspan>
        <tspan
           id="tspan4914"
           sodipodi:role="line"
           y="451.13541"
           x="43.663002 52.010498">15</tspan>
        <tspan
           id="tspan4916"
           sodipodi:role="line"
           y="476.13541"
           x="43.663002 52.010498">20</tspan>
        <tspan
           id="tspan4918"
           sodipodi:role="line"
           y="501.13538"
           x="43.663002 52.010498">24</tspan>
        <tspan
           id="tspan4920"
           sodipodi:role="line"
           y="492.54166"
           x="62.412998" />
        <tspan
           id="tspan4922"
           sodipodi:role="line"
           y="476.13541"
           x="62.413006 70.760506">17</tspan>
        <tspan
           id="tspan4924"
           sodipodi:role="line"
           y="451.13541"
           x="62.412998" />
        <tspan
           id="tspan4926"
           sodipodi:role="line"
           y="476.13541"
           x="81.163017 89.510513">18</tspan>
        <tspan
           id="tspan4928"
           sodipodi:role="line"
           y="517.54169"
           x="62.412998" />
        <tspan
           id="tspan4930"
           sodipodi:role="line"
           y="426.13541"
           x="128.03802 136.38553">12</tspan>
        <tspan
           id="tspan4932"
           sodipodi:role="line"
           y="517.54169"
           x="62.412998" />
        <tspan
           id="tspan4934"
           sodipodi:role="line"
           y="451.13541"
           x="156.16302 164.51051">16</tspan>
        <tspan
           id="tspan4936"
           sodipodi:role="line"
           y="476.13541"
           x="137.41302 145.76053">19</tspan>
        <tspan
           id="tspan4938"
           sodipodi:role="line"
           y="501.13544"
           x="137.41302 145.76053">22</tspan>
        <tspan
           id="tspan4940"
           sodipodi:role="line"
           y="0"
           x="62.412998" />
        <tspan
           id="tspan4942"
           sodipodi:role="line"
           y="476.13544"
           x="174.91301 183.26051">21</tspan>
        <tspan
           id="tspan4944"
           sodipodi:role="line"
           y="501.13544"
           x="174.91301 183.26051">23</tspan>
        <tspan
           id="tspan4946"
           sodipodi:role="line"
           y="0"
           x="62.412998" />
      </text>
      <text
         y="34.685349"
         x="218.11998"
         style="font-variant:normal;font-weight:normal;font-size:13.125px;font-family:'DejaVu Sans';-inkscape-font-specification:DejaVuSans;writing-mode:lr-tb;display:inline;fill:#000000;fill-opacity:1;fill-rule:nonzero;stroke:none"
         id="text5030">
        <tspan
           x="218.11998"
           y="34.685349"
           id="tspan5032" />
        <tspan
           x="218.11998"
           y="51.091599"
           sodipodi:role="line"
           id="tspan5034" />
        <tspan
           x="236.03972 244.38722"
           y="83.971054"
           sodipodi:role="line"
           id="tspan5036">16</tspan>
        <tspan
           x="218.11998"
           y="133.25679"
           sodipodi:role="line"
           id="tspan5038" />
        <tspan
           x="262.82547 271.17294"
           y="133.25679"
           sodipodi:role="line"
           id="tspan5040">22</tspan>
        <tspan
           x="218.11998"
           y="0"
           sodipodi:role="line"
           id="tspan5042" />
      </text>
    </g>
  </g>
</svg>
